<?xml version="1.0" encoding="UTF-8" standalone="no"?>
<!DOCTYPE svg PUBLIC "-//W3C//DTD SVG 1.1//EN" "http://www.w3.org/Graphics/SVG/1.1/DTD/svg11.dtd">
<svg xmlns="http://www.w3.org/2000/svg" version="1.1" viewBox="0.00 0.00 1117.00 1874.00">
<path fill="#ffffff" fill-opacity="0" d="
  M 0.00 0.00
  L 1117.00 0.00
  L 1117.00 1874.00
  L 0.00 1874.00
  L 0.00 0.00
  Z"></path>
<path fill="#FFFFFF" d="
  M 1043.20 1466.85
  Q 1037.80 1466.76 1042.89 1468.57
  C 1046.60 1469.89 1056.11 1473.44 1056.83 1477.77
  Q 1057.61 1482.49 1054.29 1484.84
  Q 1051.81 1486.60 1048.13 1487.22
  Q 1045.48 1487.66 1042.58 1487.21
  Q 1025.86 1484.61 1009.32 1481.97
  C 1005.94 1481.43 1002.69 1480.41 999.26 1479.77
  C 998.02 1479.54 996.41 1479.70 995.59 1480.85
  Q 992.71 1484.88 989.50 1488.69
  Q 987.86 1490.63 985.51 1491.83
  Q 975.66 1496.83 962.09 1500.15
  C 957.59 1501.25 954.21 1501.76 949.37 1501.20
  Q 930.28 1498.98 908.66 1497.69
  C 900.44 1497.20 891.02 1494.91 883.30 1490.89
  C 879.66 1489.00 875.64 1486.73 871.47 1485.86
  Q 868.49 1485.24 865.70 1484.40
  A 0.66 0.66 0.0 0 0 864.91 1485.31
  C 866.15 1488.01 868.09 1489.40 870.25 1491.27
  Q 882.68 1502.01 893.90 1513.10
  Q 897.28 1516.45 900.72 1522.26
  Q 901.00 1522.74 900.52 1523.01
  Q 897.30 1524.82 893.82 1525.36
  A 1.35 1.35 0.0 0 0 893.03 1527.60
  C 894.38 1529.10 896.09 1529.90 897.29 1531.50
  Q 900.89 1536.32 899.39 1542.59
  Q 898.62 1545.82 895.89 1546.86
  C 891.00 1548.73 886.42 1550.37 880.89 1550.44
  Q 873.53 1550.52 865.91 1549.71
  Q 857.50 1548.81 851.12 1544.47
  C 842.84 1538.84 834.54 1533.71 826.60 1527.76
  Q 822.11 1524.39 815.72 1524.26
  A 1.22 1.22 0.0 0 0 814.47 1525.40
  C 814.03 1531.76 813.42 1539.13 810.27 1544.72
  A 1.25 1.25 0.0 0 0 810.49 1546.23
  Q 818.92 1554.53 825.11 1562.85
  Q 830.07 1569.53 824.17 1575.69
  Q 820.07 1579.96 814.21 1577.07
  Q 797.26 1568.70 780.92 1559.01
  Q 776.39 1556.33 773.52 1555.34
  C 770.91 1554.45 765.13 1552.33 762.25 1552.87
  A 0.39 0.39 0.0 0 0 762.15 1553.61
  C 764.99 1554.95 767.09 1557.15 769.78 1558.63
  Q 776.15 1562.16 780.56 1565.97
  Q 783.99 1568.93 783.72 1574.65
  Q 783.53 1578.79 787.17 1579.93
  Q 791.81 1581.39 796.23 1581.83
  C 804.36 1582.63 812.22 1583.01 820.20 1583.83
  C 824.70 1584.30 829.16 1584.39 833.40 1586.56
  C 838.12 1588.98 841.40 1592.90 845.95 1595.47
  C 850.40 1597.98 856.37 1600.79 859.82 1604.44
  Q 861.49 1606.21 862.45 1609.33
  Q 862.61 1609.86 862.26 1610.30
  Q 860.46 1612.50 857.48 1612.20
  Q 849.29 1611.38 840.89 1610.79
  C 836.91 1610.50 832.82 1611.03 829.16 1612.49
  C 822.93 1614.97 815.23 1613.42 808.62 1612.38
  C 801.32 1611.23 793.43 1611.75 786.51 1609.86
  C 780.91 1608.33 775.34 1606.84 769.88 1604.86
  C 763.76 1602.65 757.16 1600.95 751.71 1597.78
  C 745.80 1594.36 740.47 1588.64 734.91 1584.59
  C 732.74 1583.01 729.84 1584.95 727.86 1586.07
  C 724.29 1588.08 719.35 1587.95 715.67 1586.80
  Q 712.80 1585.91 708.48 1582.51
  C 701.81 1577.27 694.31 1571.03 686.43 1567.36
  C 676.65 1562.80 665.68 1575.73 660.57 1582.24
  A 0.95 0.94 35.3 0 1 659.31 1582.45
  Q 651.72 1577.53 644.29 1572.14
  Q 626.31 1559.09 608.73 1546.08
  C 607.47 1545.14 606.16 1543.67 604.77 1542.80
  A 1.06 1.05 -75.4 0 0 603.16 1543.75
  C 603.96 1561.56 604.27 1580.12 604.88 1598.25
  Q 607.04 1661.82 608.95 1732.25
  Q 609.23 1742.26 609.59 1752.23
  Q 610.78 1784.82 611.75 1822.48
  Q 611.83 1825.97 611.70 1829.25
  A 1.65 1.65 0.0 0 1 611.00 1830.54
  Q 599.24 1838.85 585.94 1842.21
  Q 567.59 1846.84 551.03 1845.46
  Q 539.68 1844.52 529.09 1839.37
  C 525.95 1837.84 523.35 1835.16 520.43 1833.13
  A 2.75 2.74 -73.0 0 1 519.25 1830.89
  Q 519.23 1825.50 519.46 1819.83
  Q 524.53 1693.60 529.81 1567.36
  Q 530.02 1562.29 530.48 1556.76
  Q 530.79 1552.94 530.18 1549.33
  A 0.64 0.63 -29.7 0 0 529.07 1549.03
  C 526.43 1552.15 524.28 1555.58 521.64 1558.69
  C 516.39 1564.88 511.59 1571.69 506.52 1577.94
  C 502.81 1582.51 499.29 1587.51 495.21 1591.49
  Q 489.88 1596.68 483.30 1601.05
  C 480.85 1602.68 478.44 1603.86 475.39 1603.34
  Q 470.51 1602.51 465.78 1602.29
  A 2.26 2.24 -71.5 0 0 463.81 1603.28
  Q 460.87 1607.63 457.63 1611.68
  C 455.62 1614.21 450.72 1618.15 447.09 1617.59
  Q 439.83 1616.49 432.89 1615.10
  A 3.85 3.85 0.0 0 1 429.80 1611.15
  Q 430.07 1605.04 430.24 1598.71
  Q 430.31 1595.75 429.59 1593.25
  A 0.68 0.68 0.0 0 0 428.47 1592.94
  Q 425.60 1595.61 422.98 1598.60
  C 420.44 1601.49 416.91 1603.40 413.12 1601.88
  A 2.98 2.96 -79.7 0 1 411.27 1599.20
  C 411.24 1597.31 411.23 1592.04 408.31 1591.94
  C 405.20 1591.83 402.58 1593.92 399.75 1594.92
  Q 388.26 1599.01 381.16 1600.08
  Q 377.42 1600.64 371.96 1598.82
  A 1.07 1.06 84.5 0 1 371.38 1598.34
  C 370.04 1595.96 371.03 1591.42 372.03 1589.26
  Q 373.19 1586.74 375.55 1583.93
  Q 385.17 1572.47 390.02 1558.50
  A 0.96 0.95 -77.6 0 0 389.22 1557.24
  Q 381.44 1556.43 373.57 1557.02
  C 364.20 1557.73 359.94 1563.09 353.86 1569.17
  C 348.34 1574.69 337.65 1573.02 330.62 1571.86
  C 326.67 1571.20 322.62 1566.41 320.13 1563.38
  Q 316.34 1558.77 310.31 1558.21
  Q 298.54 1557.11 288.25 1557.86
  Q 284.56 1558.13 281.28 1559.66
  Q 274.59 1562.78 267.75 1566.13
  Q 264.05 1567.95 260.26 1569.05
  Q 241.89 1574.43 226.08 1577.66
  C 221.12 1578.68 215.92 1579.14 210.83 1578.89
  Q 198.81 1578.30 189.82 1577.05
  Q 187.12 1576.67 184.77 1575.45
  A 1.93 1.92 20.7 0 1 183.78 1573.27
  Q 185.00 1568.33 188.01 1563.85
  C 191.14 1559.19 194.31 1554.51 198.92 1550.93
  Q 202.37 1548.26 206.39 1546.22
  Q 214.68 1542.00 220.99 1537.72
  C 224.13 1535.59 226.13 1530.80 224.19 1527.05
  C 222.64 1524.05 220.97 1520.67 222.56 1517.31
  Q 222.77 1516.87 223.23 1516.68
  Q 229.55 1514.13 237.84 1509.51
  Q 244.11 1506.00 247.14 1500.80
  C 247.62 1499.98 248.66 1499.00 248.90 1498.10
  A 1.83 1.82 -76.3 0 0 247.53 1495.84
  Q 244.40 1495.15 241.25 1496.20
  Q 232.07 1499.23 223.86 1502.06
  Q 219.53 1503.56 215.18 1501.30
  C 212.30 1499.82 210.77 1495.73 209.91 1492.74
  C 209.01 1489.64 211.79 1486.21 213.58 1483.83
  C 215.42 1481.39 216.17 1478.13 217.87 1475.37
  A 0.87 0.87 0.0 0 0 217.18 1474.04
  Q 215.54 1473.93 214.19 1474.96
  Q 210.14 1478.03 205.85 1481.64
  Q 195.52 1490.33 182.20 1490.40
  Q 175.72 1490.43 169.51 1490.43
  A 8.32 8.22 -57.1 0 0 166.03 1491.20
  Q 161.26 1493.43 155.88 1495.33
  Q 152.29 1496.59 148.82 1496.03
  A 1.89 1.89 0.0 0 1 147.26 1494.52
  Q 146.58 1491.06 147.73 1487.26
  Q 150.84 1477.02 155.74 1469.62
  Q 157.27 1467.31 157.78 1464.80
  Q 158.02 1463.64 156.83 1463.60
  C 154.14 1463.53 151.42 1463.64 148.78 1463.99
  C 145.62 1464.41 133.88 1464.66 133.59 1459.65
  Q 133.36 1455.67 136.29 1453.33
  Q 142.62 1448.29 150.30 1443.55
  A 0.82 0.81 -14.1 0 0 150.68 1442.92
  Q 150.70 1442.36 150.13 1442.26
  Q 139.10 1440.31 126.25 1439.66
  C 120.28 1439.36 114.23 1438.61 108.46 1436.66
  C 104.58 1435.35 100.63 1434.06 96.58 1433.50
  Q 84.80 1431.87 73.31 1430.49
  C 67.28 1429.76 61.67 1426.14 56.35 1423.53
  Q 55.89 1423.30 55.65 1422.85
  Q 53.99 1419.80 55.46 1416.49
  A 1.52 1.51 1.0 0 1 56.29 1415.69
  Q 58.89 1414.67 61.91 1414.19
  Q 73.49 1412.36 81.78 1412.61
  Q 89.90 1412.85 98.96 1412.12
  A 1.21 1.21 0.0 0 0 100.02 1410.55
  Q 99.58 1409.11 98.03 1408.75
  Q 88.50 1406.53 79.10 1405.54
  Q 60.70 1403.59 43.59 1402.22
  Q 38.95 1401.85 34.37 1400.94
  C 30.65 1400.19 26.77 1399.73 23.12 1398.62
  Q 17.39 1396.88 11.98 1395.35
  C 9.40 1394.63 6.61 1392.19 7.51 1389.21
  Q 8.11 1387.21 10.31 1386.52
  Q 19.94 1383.52 29.01 1382.82
  Q 41.65 1381.83 57.30 1381.12
  C 60.96 1380.96 65.03 1380.33 67.70 1377.43
  C 71.24 1373.59 77.91 1373.02 82.67 1373.48
  Q 96.66 1374.85 117.55 1377.48
  Q 128.86 1378.91 141.66 1376.69
  Q 153.65 1374.62 166.02 1372.12
  C 175.05 1370.30 184.75 1369.02 194.26 1369.62
  Q 206.97 1370.42 217.10 1371.12
  C 234.25 1372.31 251.23 1370.78 270.32 1368.92
  C 274.31 1368.54 278.57 1367.81 282.56 1366.67
  Q 291.85 1364.04 300.57 1362.12
  C 302.65 1361.66 304.70 1360.76 306.22 1359.23
  C 308.56 1356.84 310.57 1354.12 313.53 1352.41
  C 318.70 1349.43 325.53 1349.36 331.35 1349.31
  Q 346.83 1349.17 358.68 1348.31
  C 367.97 1347.64 375.21 1340.38 383.02 1337.36
  Q 390.13 1334.60 393.49 1332.11
  C 404.35 1324.04 411.84 1314.86 422.26 1301.35
  Q 424.15 1298.90 426.10 1296.69
  Q 428.35 1294.14 430.02 1291.46
  A 1.61 1.60 42.3 0 0 429.93 1289.62
  Q 428.89 1288.27 427.66 1289.39
  Q 427.25 1289.76 426.83 1290.11
  Q 423.13 1293.23 419.29 1296.12
  Q 415.43 1299.03 411.92 1302.22
  Q 403.52 1309.86 395.10 1316.73
  Q 394.08 1317.56 393.10 1318.46
  Q 390.17 1321.14 385.70 1322.36
  Q 382.79 1323.15 382.41 1320.12
  Q 381.22 1310.85 384.00 1300.16
  A 1.41 1.41 0.0 0 0 382.21 1298.46
  Q 379.99 1299.17 377.80 1300.79
  C 369.68 1306.84 361.77 1312.90 352.96 1317.61
  C 349.09 1319.68 344.55 1321.30 340.28 1322.63
  Q 336.95 1323.67 329.77 1323.71
  Q 329.20 1323.71 328.84 1323.27
  C 327.02 1320.99 327.29 1315.34 326.83 1312.52
  Q 326.13 1308.20 323.61 1311.78
  Q 317.96 1319.84 307.54 1316.86
  C 303.38 1315.67 301.75 1310.23 302.43 1306.56
  Q 302.87 1304.23 303.64 1301.65
  C 304.30 1299.44 302.82 1298.19 300.79 1298.29
  Q 291.18 1298.74 282.13 1298.11
  C 280.48 1298.00 278.72 1297.09 278.35 1295.34
  Q 277.15 1289.56 276.80 1284.41
  C 276.64 1282.16 274.21 1280.92 272.19 1280.65
  Q 264.93 1279.67 257.98 1278.86
  Q 252.86 1278.27 246.61 1276.18
  Q 238.86 1273.58 231.38 1271.08
  C 226.35 1269.40 227.54 1265.54 227.84 1261.56
  A 2.08 2.07 -85.0 0 0 225.98 1259.34
  Q 223.66 1259.11 221.66 1260.46
  C 218.48 1262.62 211.80 1267.16 207.85 1265.12
  Q 203.19 1262.71 201.80 1257.62
  Q 199.72 1249.97 198.84 1241.15
  A 0.91 0.91 0.0 0 0 197.71 1240.36
  C 192.00 1241.81 185.15 1243.99 179.35 1243.13
  Q 175.10 1242.50 176.03 1238.25
  Q 177.03 1233.71 179.17 1229.59
  Q 180.33 1227.35 180.20 1224.88
  A 1.64 1.63 -1.3 0 0 178.57 1223.33
  Q 171.05 1223.26 161.17 1221.82
  C 158.68 1221.46 156.98 1219.44 156.34 1217.13
  Q 155.35 1213.52 154.54 1209.67
  A 2.68 2.68 0.0 0 0 152.29 1207.57
  C 144.21 1206.45 136.23 1205.48 128.24 1202.73
  Q 126.92 1202.27 125.83 1201.38
  Q 125.41 1201.04 125.45 1200.49
  L 125.66 1197.46
  A 1.97 1.97 0.0 0 1 127.20 1195.67
  C 136.55 1193.59 146.82 1193.00 156.38 1193.13
  Q 211.64 1193.87 273.97 1193.46
  Q 292.85 1193.34 308.63 1192.18
  Q 313.07 1191.86 321.70 1190.30
  Q 329.17 1188.95 336.78 1188.58
  Q 337.35 1188.56 337.59 1188.20
  A 0.49 0.48 25.7 0 0 337.33 1187.47
  Q 330.20 1185.15 323.53 1182.97
  C 316.44 1180.66 310.75 1178.05 304.97 1174.33
  A 2.49 2.47 -73.8 0 1 303.83 1172.24
  C 303.83 1169.13 303.43 1165.12 307.15 1163.89
  Q 313.93 1161.64 321.08 1160.77
  Q 332.23 1159.41 344.67 1159.31
  Q 346.81 1159.29 347.71 1158.46
  C 348.86 1157.40 349.05 1155.49 348.46 1154.03
  C 347.49 1151.61 346.64 1147.63 347.75 1145.01
  A 1.46 1.44 88.5 0 1 348.45 1144.26
  Q 351.43 1142.79 354.69 1142.43
  Q 362.22 1141.59 369.98 1141.38
  Q 373.07 1141.30 376.80 1140.62
  C 380.20 1139.99 381.10 1135.91 381.41 1133.10
  C 381.59 1131.50 382.84 1130.91 384.22 1130.59
  Q 397.23 1127.61 409.69 1124.90
  C 413.52 1124.07 417.13 1121.70 419.62 1118.60
  Q 425.94 1110.72 431.49 1103.52
  A 1.00 1.00 0.0 0 0 430.96 1101.95
  C 425.81 1100.53 418.37 1100.40 414.33 1104.40
  Q 412.49 1106.23 410.33 1108.10
  C 405.52 1112.27 398.21 1104.03 395.31 1100.97
  A 1.52 1.52 0.0 0 0 392.85 1101.35
  C 390.23 1106.68 387.76 1111.06 380.78 1110.60
  Q 375.52 1110.26 370.37 1108.64
  C 365.66 1107.16 361.53 1103.47 357.87 1100.04
  C 354.87 1097.22 348.40 1101.27 345.51 1103.04
  C 338.05 1107.61 323.85 1115.68 315.05 1112.16
  Q 310.32 1110.27 312.52 1105.35
  Q 315.89 1097.80 321.79 1091.24
  C 323.00 1089.90 322.51 1087.55 320.53 1087.35
  Q 318.92 1087.18 317.32 1087.50
  Q 311.17 1088.75 305.46 1090.38
  Q 301.33 1091.56 295.99 1090.87
  Q 290.62 1090.18 290.80 1084.63
  Q 291.04 1077.26 293.72 1072.46
  A 0.84 0.84 0.0 0 0 293.19 1071.23
  C 290.84 1070.63 288.21 1070.57 285.85 1071.09
  Q 273.49 1073.80 259.08 1074.85
  Q 253.59 1075.25 249.19 1073.56
  C 245.56 1072.18 245.83 1066.75 247.55 1064.11
  Q 249.40 1061.27 252.37 1058.98
  Q 256.42 1055.87 260.21 1052.56
  Q 262.19 1050.83 261.84 1048.30
  A 0.66 0.65 79.7 0 0 261.06 1047.75
  C 256.57 1048.71 252.05 1049.15 247.60 1050.42
  Q 241.61 1052.13 235.32 1052.90
  C 227.67 1053.83 227.62 1045.61 228.05 1040.45
  Q 228.36 1036.79 224.78 1036.74
  Q 212.58 1036.56 200.02 1035.50
  Q 193.25 1034.93 187.19 1032.28
  Q 185.50 1031.54 185.24 1030.05
  Q 184.34 1024.90 189.29 1023.03
  C 202.11 1018.18 217.90 1017.77 231.77 1016.75
  Q 238.12 1016.28 244.38 1013.27
  C 250.58 1010.29 255.83 1009.14 262.98 1008.89
  Q 277.22 1008.40 291.25 1006.99
  C 298.72 1006.23 299.87 998.92 306.44 997.55
  Q 316.11 995.52 326.44 994.53
  Q 340.53 993.18 354.30 992.19
  C 358.25 991.91 362.22 990.79 365.94 989.46
  Q 377.84 985.22 390.47 980.36
  Q 400.58 976.48 407.06 967.26
  A 0.80 0.80 0.0 0 0 406.61 966.02
  C 403.75 965.24 400.74 964.41 397.70 964.25
  Q 388.75 963.78 379.21 963.68
  Q 376.29 963.65 373.46 964.41
  C 371.11 965.05 360.52 967.79 360.30 963.46
  Q 360.18 960.98 360.43 958.38
  A 1.37 1.35 2.5 0 0 359.06 956.90
  Q 344.99 956.99 329.88 954.56
  Q 328.01 954.26 326.50 953.31
  C 320.38 949.48 314.23 948.50 307.00 948.69
  Q 297.62 948.93 287.77 946.92
  C 284.36 946.23 277.53 943.32 281.12 938.86
  Q 282.31 937.37 284.11 936.24
  Q 296.27 928.52 308.93 923.68
  C 312.00 922.51 314.89 920.86 317.94 919.64
  Q 329.92 914.88 339.05 910.19
  Q 353.03 903.01 371.70 892.88
  Q 380.89 887.90 389.12 884.08
  Q 408.84 874.94 428.11 865.61
  C 434.32 862.60 438.97 859.56 441.30 852.50
  Q 442.78 848.04 444.32 843.49
  A 1.75 1.75 0.0 0 0 443.10 841.23
  Q 435.79 839.35 429.35 840.04
  Q 426.82 840.31 425.17 842.81
  C 421.23 848.79 417.24 855.05 410.69 858.40
  Q 405.46 861.07 400.80 863.64
  A 3.58 3.57 66.2 0 1 395.69 861.65
  Q 394.35 857.72 392.37 854.05
  A 2.05 2.05 0.0 0 0 389.27 853.44
  Q 379.48 861.45 368.51 868.95
  Q 366.68 870.21 364.20 870.09
  C 357.47 869.79 348.69 866.22 356.10 858.07
  Q 363.44 850.01 370.22 843.40
  Q 372.03 841.64 374.25 840.11
  A 1.12 1.11 -28.4 0 0 374.65 838.77
  Q 374.36 838.05 373.54 837.98
  Q 365.27 837.27 357.57 838.88
  C 352.38 839.96 348.52 847.86 342.81 841.72
  C 339.69 838.36 336.99 835.13 331.86 835.46
  Q 323.57 835.98 315.34 835.80
  C 304.85 835.58 294.07 837.82 283.68 839.76
  Q 279.18 840.60 278.87 835.97
  Q 278.52 830.86 278.49 825.81
  A 1.74 1.72 1.8 0 0 276.86 824.09
  Q 262.57 823.22 249.28 821.45
  C 242.47 820.54 240.42 818.40 242.34 811.46
  A 2.31 2.30 -71.6 0 0 240.97 808.71
  Q 233.57 805.75 226.59 801.11
  C 223.94 799.35 221.60 797.41 218.58 796.27
  C 211.87 793.75 204.63 791.03 199.24 786.11
  C 196.51 783.62 197.13 779.19 197.48 775.91
  C 197.61 774.61 198.32 773.76 199.73 773.76
  C 204.40 773.78 208.86 776.08 212.99 777.75
  Q 215.86 778.91 224.38 779.68
  Q 231.19 780.29 238.42 780.97
  A 2.14 2.13 8.7 0 0 240.70 779.30
  Q 241.52 775.52 242.34 771.69
  C 243.69 765.40 252.96 766.01 258.24 766.22
  C 284.07 767.25 306.03 767.57 327.93 767.23
  C 338.62 767.07 348.68 765.80 358.90 763.37
  Q 359.66 763.19 359.17 762.57
  Q 358.55 761.81 357.50 761.63
  Q 351.97 760.68 346.23 758.46
  Q 342.16 756.88 342.77 751.97
  C 343.14 749.02 345.53 748.62 348.10 748.82
  Q 355.54 749.37 362.26 749.87
  Q 392.94 752.14 423.28 746.99
  C 432.63 745.40 440.84 743.35 448.18 737.37
  Q 457.10 730.10 465.42 722.53
  Q 466.50 721.55 465.04 721.53
  C 464.27 721.52 463.01 721.72 462.32 722.01
  Q 452.90 726.07 443.20 729.42
  C 440.95 730.19 438.74 730.67 436.29 730.73
  Q 417.70 731.18 411.55 731.17
  C 409.12 731.17 406.23 729.83 405.75 727.05
  Q 405.39 724.98 404.96 722.74
  Q 404.74 721.63 403.61 721.58
  Q 394.96 721.19 386.47 720.04
  Q 383.93 719.69 381.97 718.74
  Q 381.47 718.50 381.29 717.97
  C 379.65 713.18 384.53 711.98 388.01 711.61
  Q 396.41 710.73 404.35 708.85
  C 405.56 708.57 406.84 708.09 407.86 707.38
  Q 414.38 702.83 420.88 697.60
  C 423.23 695.71 426.13 693.75 428.92 692.65
  Q 435.96 689.87 440.75 687.09
  Q 450.20 681.60 460.33 675.70
  Q 470.02 670.06 476.80 664.83
  Q 487.97 656.21 497.87 645.13
  Q 498.86 644.03 499.36 642.79
  A 1.93 1.93 0.0 0 0 497.88 640.17
  Q 495.79 639.82 493.76 640.56
  C 488.54 642.45 484.25 645.44 479.98 648.83
  Q 477.10 651.12 474.35 651.59
  C 469.11 652.50 463.10 650.00 462.18 644.29
  C 461.22 638.29 464.65 632.33 464.26 626.29
  A 1.51 1.51 0.0 0 0 461.60 625.41
  C 460.11 627.19 458.39 628.96 456.43 630.17
  Q 451.38 633.28 446.25 637.11
  C 438.75 642.71 430.67 645.51 421.61 647.28
  Q 416.40 648.30 410.87 647.96
  Q 408.32 647.81 408.50 645.26
  Q 408.77 641.49 408.65 638.26
  Q 408.54 635.11 405.15 635.48
  Q 394.76 636.64 386.59 636.18
  Q 383.03 635.97 379.27 634.56
  C 374.58 632.79 380.90 626.52 382.80 625.23
  Q 392.35 618.73 402.76 612.24
  Q 405.78 610.36 408.21 608.54
  C 410.18 607.08 412.29 606.16 414.25 604.73
  Q 414.95 604.22 414.08 604.21
  Q 409.80 604.13 406.06 605.23
  Q 393.55 608.91 380.35 609.65
  Q 376.80 609.85 373.67 608.15
  A 2.12 2.10 27.1 0 1 372.77 605.39
  Q 375.09 600.53 378.98 596.64
  A 1.08 1.07 -62.5 0 0 378.41 594.82
  C 376.75 594.52 375.11 594.60 373.48 594.13
  Q 365.68 591.92 358.26 588.89
  C 353.17 586.80 346.66 582.56 346.90 576.69
  C 347.04 573.14 352.15 572.17 355.01 571.85
  C 365.46 570.68 376.77 572.10 387.53 573.11
  C 399.53 574.23 411.78 574.31 423.85 573.91
  Q 435.06 573.54 445.41 571.96
  C 450.55 571.18 455.55 569.60 460.11 566.77
  Q 472.28 559.24 483.13 550.96
  C 492.64 543.70 501.60 533.49 510.56 525.12
  Q 514.33 521.60 514.93 516.01
  C 515.45 511.19 515.43 506.14 516.68 501.43
  Q 516.89 500.67 516.09 500.63
  C 515.02 500.57 513.85 500.94 513.12 501.75
  C 511.76 503.26 510.08 504.42 508.75 505.91
  Q 499.81 515.91 493.09 522.30
  Q 486.38 528.67 475.88 531.85
  Q 473.75 532.50 472.07 530.65
  C 468.78 527.04 471.00 522.08 468.83 518.30
  A 2.12 2.11 61.6 0 0 466.04 517.46
  Q 463.37 518.82 461.22 520.53
  C 456.56 524.26 449.65 525.30 444.25 523.96
  C 442.01 523.40 441.06 521.14 440.35 519.18
  C 438.61 514.35 440.05 510.99 442.24 506.82
  A 1.60 1.60 0.0 0 0 441.08 504.50
  C 435.44 503.58 429.65 501.87 424.71 499.03
  C 422.33 497.66 419.19 495.57 416.57 497.42
  C 411.54 500.97 406.15 504.32 399.73 503.25
  Q 394.98 502.46 390.34 501.15
  A 1.35 1.34 -77.7 0 1 389.38 499.64
  C 390.02 495.74 392.75 491.85 394.61 488.32
  Q 395.65 486.33 394.20 484.77
  Q 393.85 484.41 393.35 484.40
  Q 387.97 484.31 382.67 481.96
  C 381.23 481.32 380.53 480.02 380.49 478.49
  Q 380.36 474.05 379.94 469.33
  A 2.36 2.35 -85.5 0 0 378.18 467.26
  C 375.82 466.65 358.54 462.29 365.84 457.04
  Q 368.31 455.26 372.27 455.13
  C 378.85 454.91 385.07 454.38 391.42 454.41
  Q 406.14 454.46 420.39 454.24
  C 423.07 454.20 425.67 454.59 428.28 455.11
  A 1.86 1.85 6.7 0 0 430.50 453.36
  C 430.59 450.71 430.32 446.71 432.71 445.05
  C 434.52 443.79 437.29 443.07 439.54 442.78
  Q 447.52 441.75 455.35 440.83
  Q 461.68 440.09 467.35 435.94
  Q 470.05 433.97 474.38 433.82
  Q 488.71 433.35 502.18 433.42
  C 506.63 433.44 507.41 430.64 508.91 427.30
  A 1.74 1.74 0.0 0 0 508.24 425.11
  Q 504.80 422.95 501.34 420.65
  C 499.60 419.49 498.94 417.63 498.61 415.65
  A 1.96 1.95 72.9 0 0 495.86 414.19
  Q 494.39 414.87 493.16 416.15
  C 490.29 419.13 485.39 419.81 484.12 414.69
  Q 483.45 412.03 483.38 409.40
  A 1.44 1.43 -88.9 0 0 482.05 408.01
  Q 477.80 407.69 474.01 407.08
  C 471.96 406.75 466.96 404.13 468.37 401.12
  Q 469.69 398.31 472.83 397.00
  Q 480.02 393.99 487.21 393.53
  C 491.84 393.23 496.15 392.44 500.52 390.75
  Q 511.31 386.58 521.83 383.46
  C 524.21 382.75 527.18 380.02 525.72 377.25
  Q 523.78 373.58 520.23 372.43
  Q 513.20 370.16 506.86 366.90
  Q 506.30 366.61 506.21 365.99
  Q 505.95 364.01 507.99 363.22
  C 514.45 360.69 521.57 360.80 528.15 358.71
  Q 534.45 356.71 536.60 355.33
  Q 542.27 351.69 547.53 348.93
  Q 548.17 348.59 547.62 348.12
  Q 542.98 344.18 538.54 340.65
  Q 534.38 337.34 530.19 339.22
  C 527.60 340.38 523.37 342.79 523.18 346.02
  Q 522.95 349.71 518.70 350.96
  A 1.80 1.80 0.0 0 1 516.80 350.38
  L 510.43 342.63
  Q 509.46 341.44 508.32 342.48
  Q 506.30 344.33 504.75 346.47
  C 502.75 349.23 499.77 350.71 496.56 351.36
  A 2.05 2.04 -27.3 0 1 494.66 350.76
  Q 489.12 344.91 490.88 337.12
  Q 491.09 336.20 490.67 335.42
  A 0.98 0.97 55.7 0 0 489.19 335.14
  Q 486.54 337.38 484.57 340.03
  C 482.31 343.04 478.44 344.62 474.99 346.10
  C 472.31 347.24 470.13 345.53 469.93 342.86
  Q 469.34 335.00 470.44 328.31
  Q 470.61 327.30 470.22 326.31
  A 1.02 1.01 -27.7 0 0 468.70 325.84
  C 467.23 326.84 465.68 327.42 464.38 328.68
  Q 461.43 331.51 457.20 333.83
  C 450.75 337.36 449.67 327.14 449.04 323.68
  C 448.43 320.30 442.15 319.78 439.37 319.78
  A 4.27 4.27 0.0 0 1 435.37 317.05
  C 434.42 314.62 435.14 312.62 437.78 312.20
  Q 446.20 310.89 455.59 310.31
  Q 460.83 310.00 468.30 305.58
  C 471.33 303.79 474.93 303.01 478.51 302.75
  Q 492.92 301.73 507.70 300.91
  C 518.92 300.29 530.25 295.34 536.33 285.35
  Q 536.66 284.81 536.57 284.19
  Q 535.91 279.56 532.88 275.85
  A 2.93 2.91 53.9 0 0 529.03 275.24
  C 526.48 276.89 521.26 280.28 520.18 274.92
  Q 518.72 267.67 518.15 260.80
  A 0.94 0.93 -13.2 0 0 516.87 260.01
  Q 516.23 260.27 515.86 260.89
  Q 511.62 268.01 507.35 273.18
  Q 504.33 276.83 499.71 276.38
  Q 496.48 276.06 497.37 272.97
  Q 498.80 268.05 498.49 262.56
  A 1.67 1.67 0.0 0 0 496.64 260.99
  C 489.35 261.76 484.34 264.72 479.28 269.43
  C 477.56 271.04 471.21 274.44 470.27 270.16
  C 469.16 265.14 474.54 259.70 478.50 257.43
  Q 481.17 255.91 478.10 255.68
  Q 472.60 255.26 465.75 256.41
  C 462.94 256.89 460.83 254.14 459.66 251.83
  A 2.03 2.02 57.7 0 1 460.22 249.32
  Q 461.92 247.98 464.04 247.68
  C 468.70 247.00 473.44 246.01 478.08 245.56
  Q 494.45 243.99 508.89 239.86
  C 514.84 238.16 518.09 233.42 521.32 228.44
  Q 522.45 226.69 527.01 224.06
  Q 532.65 220.80 539.39 217.10
  C 542.37 215.46 547.38 212.83 548.93 209.69
  A 1.61 1.60 19.6 0 0 547.85 207.42
  Q 539.20 205.38 530.53 202.99
  C 527.43 202.14 522.61 199.07 524.68 195.16
  Q 526.43 191.86 530.26 191.81
  Q 536.87 191.73 544.23 190.69
  A 3.40 3.39 -83.9 0 0 546.95 188.49
  C 548.41 184.43 549.54 179.95 552.08 176.41
  Q 555.41 171.76 559.53 167.86
  C 562.16 165.35 563.77 160.48 561.64 157.17
  A 2.01 2.01 0.0 0 0 558.48 156.90
  Q 554.76 160.91 550.63 164.72
  C 547.74 167.40 547.75 171.52 543.32 172.59
  C 539.87 173.43 536.82 172.03 533.36 172.50
  Q 528.02 173.22 522.33 174.20
  C 519.80 174.63 515.96 174.85 515.12 171.75
  Q 514.99 171.24 515.28 170.79
  C 516.99 168.18 524.93 165.49 527.96 164.44
  C 529.29 163.99 530.70 163.10 531.79 162.22
  A 0.85 0.85 0.0 0 0 531.50 160.74
  C 526.89 159.40 520.80 157.17 518.01 152.92
  A 1.90 1.90 0.0 0 1 518.26 150.53
  Q 519.22 149.59 521.00 149.58
  Q 528.16 149.55 535.87 149.39
  C 541.19 149.28 543.89 146.32 544.37 141.41
  C 544.92 135.74 549.39 134.64 554.22 134.99
  C 556.48 135.15 558.55 133.24 557.43 130.90
  C 555.49 126.85 553.79 123.33 548.53 123.17
  C 543.00 123.00 537.79 124.47 532.83 121.51
  A 1.19 1.19 0.0 0 1 532.71 119.55
  Q 535.10 117.68 538.36 117.60
  Q 544.73 117.43 551.23 117.44
  C 553.41 117.44 555.53 116.78 557.04 115.10
  Q 559.95 111.86 564.10 110.10
  C 565.30 109.59 566.40 108.68 567.04 107.55
  Q 567.67 106.42 566.54 105.80
  C 563.87 104.34 560.93 103.74 557.92 103.43
  Q 552.16 102.83 547.94 99.87
  C 544.66 97.56 545.16 93.23 545.67 89.75
  Q 546.04 87.19 548.60 87.15
  Q 553.62 87.07 559.23 87.25
  Q 561.23 87.31 563.15 86.85
  Q 563.65 86.73 563.93 86.30
  Q 565.73 83.52 562.97 81.54
  Q 554.93 75.78 549.06 70.54
  Q 546.00 67.81 546.08 63.84
  A 1.33 1.32 0.9 0 1 547.43 62.54
  Q 548.65 62.57 549.71 63.15
  Q 554.97 66.05 560.63 67.55
  A 1.19 1.18 0.9 0 0 562.09 66.14
  Q 561.42 63.26 560.86 60.53
  C 559.53 54.03 566.47 55.53 567.09 50.40
  Q 568.48 38.75 568.73 26.19
  Q 568.87 19.38 570.56 13.10
  C 571.67 8.99 577.04 9.85 578.85 12.69
  Q 580.18 14.78 580.62 18.19
  Q 581.41 24.34 581.38 30.03
  Q 581.32 45.62 581.56 61.74
  A 1.63 1.63 0.0 0 0 584.02 63.12
  Q 589.03 60.19 595.02 59.81
  A 1.82 1.82 0.0 0 1 596.50 62.84
  Q 592.76 67.02 588.77 70.85
  Q 584.15 75.27 582.25 81.70
  C 581.42 84.51 583.48 87.08 586.44 86.46
  Q 592.75 85.15 599.16 82.42
  Q 601.48 81.44 604.30 81.23
  C 608.19 80.95 606.30 87.47 605.39 89.19
  Q 604.65 90.58 602.75 91.35
  Q 596.00 94.05 589.48 97.82
  Q 587.16 99.16 589.80 99.62
  Q 597.12 100.91 603.87 100.69
  C 606.43 100.61 606.51 104.62 604.19 105.49
  Q 597.18 108.10 590.43 107.87
  A 0.43 0.43 0.0 0 0 590.05 108.52
  C 591.33 110.70 593.38 111.91 595.78 112.49
  Q 601.68 113.90 607.33 119.36
  C 608.32 120.32 609.92 120.67 611.22 120.82
  Q 616.38 121.40 621.52 121.99
  C 624.86 122.38 625.71 127.01 622.52 128.06
  Q 614.09 130.84 608.20 135.81
  C 607.19 136.66 605.59 136.94 604.30 136.94
  Q 599.20 136.93 594.02 137.10
  A 1.61 1.61 0.0 0 0 592.58 139.29
  Q 592.79 139.85 593.25 140.31
  Q 600.65 147.87 612.01 148.12
  Q 620.12 148.29 627.74 149.27
  Q 629.38 149.49 631.11 150.08
  C 634.10 151.10 634.17 154.55 632.56 156.80
  Q 630.92 159.08 628.39 160.57
  C 625.33 162.37 626.30 167.28 626.22 170.15
  Q 626.11 173.98 622.14 173.35
  Q 615.13 172.25 607.34 169.34
  Q 604.25 168.18 600.53 168.06
  C 598.24 167.98 596.71 169.53 595.50 171.22
  Q 595.01 171.92 595.37 172.69
  Q 600.96 184.59 612.65 191.90
  C 615.55 193.71 614.18 196.61 611.80 197.85
  Q 609.13 199.25 606.63 201.42
  A 1.35 1.34 44.6 0 0 606.65 203.47
  C 612.76 208.51 619.75 211.55 628.14 213.92
  Q 634.08 215.59 640.97 218.36
  A 0.92 0.91 13.0 0 1 641.55 219.28
  Q 641.48 220.34 640.44 220.78
  Q 634.94 223.11 629.39 227.63
  A 0.44 0.44 0.0 0 0 629.54 228.40
  Q 632.81 229.37 636.18 229.96
  Q 648.38 232.06 661.07 234.26
  Q 662.92 234.58 664.01 236.02
  Q 664.33 236.44 664.26 236.96
  C 663.70 241.34 656.48 241.32 655.31 246.67
  Q 654.69 249.50 654.36 252.40
  A 1.77 1.77 0.0 0 1 652.67 253.96
  Q 645.84 254.21 639.85 253.60
  A 2.06 2.06 0.0 0 0 637.86 256.69
  Q 639.14 258.88 640.25 261.20
  C 641.50 263.84 638.68 266.43 637.27 268.27
  A 0.90 0.89 46.3 0 0 637.25 269.33
  Q 638.00 270.41 639.37 270.30
  Q 662.19 268.47 682.07 269.37
  A 1.31 1.31 0.0 0 1 683.30 270.45
  C 683.69 272.66 681.81 274.29 679.91 275.01
  C 676.97 276.13 674.35 277.71 671.37 278.78
  Q 663.41 281.65 655.52 284.90
  C 649.14 287.53 642.59 289.76 635.81 291.59
  Q 633.40 292.25 635.89 292.51
  Q 643.94 293.35 653.39 294.87
  C 661.27 296.15 669.64 297.87 676.04 302.91
  C 678.48 304.84 679.71 308.29 680.81 311.05
  C 681.48 312.71 683.41 313.60 685.04 314.13
  Q 690.62 315.92 694.75 318.19
  C 697.36 319.63 700.32 320.17 703.29 320.16
  Q 716.45 320.15 728.92 321.79
  Q 732.45 322.25 732.47 325.55
  C 732.51 333.19 718.21 336.31 712.74 337.85
  A 1.91 1.91 0.0 0 0 711.36 339.90
  Q 711.96 345.14 710.88 349.60
  A 1.62 1.62 0.0 0 1 709.09 350.83
  C 701.50 349.85 695.43 350.10 686.24 350.63
  C 684.22 350.74 682.25 350.46 680.25 350.02
  Q 678.36 349.60 678.14 351.52
  L 677.52 357.03
  A 1.65 1.64 11.6 0 1 675.41 358.42
  C 670.77 357.04 666.32 355.48 662.12 353.00
  Q 654.19 348.33 646.32 343.76
  Q 644.58 342.75 642.94 341.31
  Q 641.97 340.46 640.65 340.39
  Q 638.28 340.25 639.80 342.08
  Q 646.61 350.25 653.35 357.70
  Q 656.06 360.71 655.38 365.24
  C 655.13 366.90 655.84 368.06 657.26 368.84
  Q 662.94 371.94 668.83 374.21
  A 2.75 2.73 -88.0 0 1 670.45 375.96
  C 671.60 379.75 669.46 382.40 666.82 384.97
  A 1.15 1.14 47.4 0 0 666.76 386.54
  Q 671.23 391.62 673.23 398.02
  A 2.17 2.17 0.0 0 1 671.72 400.77
  C 666.43 402.18 661.38 401.81 656.15 399.81
  C 649.09 397.12 642.84 394.51 637.60 389.43
  Q 634.02 385.96 628.12 377.08
  C 627.47 376.11 626.36 375.60 625.22 375.53
  A 0.80 0.80 0.0 0 0 624.38 376.48
  C 624.66 378.01 625.04 379.29 624.98 380.89
  Q 624.79 385.91 626.47 391.28
  Q 626.82 392.41 627.83 393.01
  Q 635.92 397.79 644.24 400.74
  C 651.23 403.22 656.62 407.62 661.45 413.12
  A 2.55 2.54 64.0 0 0 663.84 413.95
  C 672.29 412.36 681.22 411.91 690.07 413.04
  Q 699.89 414.29 709.66 414.45
  C 715.90 414.55 721.89 416.02 727.69 418.09
  C 729.57 418.77 731.77 418.77 733.74 418.36
  Q 740.73 416.89 747.87 415.73
  Q 751.83 415.09 752.80 418.90
  Q 754.01 423.67 750.42 427.93
  Q 744.23 435.25 734.98 439.95
  C 729.54 442.71 721.05 442.71 715.00 442.22
  A 1.35 1.35 0.0 0 0 713.84 444.42
  C 715.51 446.46 717.57 450.98 716.51 453.81
  A 1.09 1.04 -1.7 0 1 715.89 454.44
  Q 713.83 455.22 711.46 455.26
  Q 700.20 455.47 689.03 454.38
  Q 686.99 454.18 688.67 455.35
  Q 689.55 455.96 690.74 456.31
  C 693.40 457.07 696.33 458.85 698.46 460.35
  Q 700.71 461.93 702.03 465.59
  Q 702.87 467.92 705.32 468.17
  Q 714.33 469.10 723.02 470.20
  Q 727.74 470.80 736.19 474.72
  Q 739.05 476.05 743.57 475.52
  Q 753.49 474.35 762.28 473.79
  Q 768.90 473.36 774.16 474.24
  C 779.18 475.07 777.87 479.88 775.14 482.22
  C 771.07 485.72 765.37 486.89 761.58 490.92
  A 1.00 1.00 0.0 0 0 761.52 492.23
  Q 764.64 496.15 768.10 499.88
  C 770.58 502.56 771.48 505.56 771.61 509.25
  C 771.76 513.21 764.04 511.67 761.88 511.07
  Q 753.19 508.66 745.13 506.12
  C 743.15 505.49 741.13 506.21 739.97 507.93
  Q 738.16 510.63 735.51 512.30
  C 732.33 514.29 727.87 512.94 724.32 512.25
  Q 721.44 511.70 720.25 514.64
  Q 717.72 520.91 714.45 525.33
  C 711.75 528.97 705.73 529.87 701.37 528.73
  C 695.52 527.20 689.87 525.91 684.96 522.04
  Q 676.17 515.12 668.31 507.87
  A 0.79 0.79 0.0 0 0 667.00 508.34
  Q 666.81 509.73 667.11 511.09
  Q 668.12 515.82 668.85 521.51
  C 669.09 523.45 668.72 524.98 667.04 526.10
  Q 663.16 528.70 659.68 532.01
  Q 658.04 533.57 659.96 534.78
  Q 668.03 539.86 675.71 542.68
  Q 690.31 548.04 708.55 554.35
  C 713.87 556.20 719.24 558.58 724.51 559.68
  Q 735.69 562.02 744.45 564.84
  C 747.48 565.81 750.24 567.22 751.28 571.09
  C 752.06 573.98 749.40 576.04 747.13 577.10
  C 739.15 580.86 730.08 581.37 722.24 585.40
  Q 718.42 587.37 714.20 589.17
  Q 713.37 589.53 713.22 589.82
  Q 712.54 591.15 714.11 591.63
  Q 717.44 592.65 720.73 593.44
  C 724.43 594.33 723.00 600.06 721.63 602.17
  Q 721.44 602.47 721.55 602.80
  Q 722.22 604.74 724.03 604.49
  Q 740.36 602.27 758.98 600.64
  Q 768.39 599.81 777.48 600.70
  C 783.02 601.24 786.38 609.34 787.80 613.98
  C 788.25 615.44 789.54 616.11 791.00 615.87
  C 798.36 614.68 806.39 614.78 813.50 617.91
  Q 817.94 619.86 822.35 621.86
  C 824.78 622.96 830.63 626.75 826.07 629.36
  Q 818.89 633.45 810.99 635.43
  C 805.48 636.82 800.21 639.27 795.02 641.57
  Q 793.73 642.14 792.66 642.98
  A 0.89 0.89 0.0 0 0 792.80 644.46
  C 798.44 647.41 803.15 650.96 805.59 656.96
  C 806.68 659.64 806.02 662.02 802.57 662.15
  Q 792.77 662.51 782.75 661.73
  C 779.08 661.44 775.43 660.59 772.20 658.77
  Q 768.35 656.59 764.16 655.24
  C 763.18 654.92 762.50 654.34 761.69 653.73
  A 1.14 1.14 0.0 0 0 759.88 654.80
  Q 760.29 657.69 761.10 660.46
  Q 762.30 664.60 762.24 670.76
  Q 762.19 675.73 758.74 678.24
  Q 755.77 680.40 753.14 682.28
  C 748.99 685.23 743.61 686.22 738.66 684.85
  Q 731.91 682.98 726.24 680.44
  A 0.97 0.97 0.0 0 0 724.87 681.30
  L 724.42 694.54
  Q 724.41 695.12 723.84 695.22
  C 716.74 696.49 711.65 692.65 704.95 691.69
  Q 702.55 691.34 700.35 690.37
  Q 699.15 689.84 698.22 690.59
  A 0.89 0.88 44.4 0 0 698.24 691.98
  C 706.15 698.00 713.10 704.17 722.13 709.08
  Q 729.01 712.83 735.59 715.24
  Q 750.05 720.54 762.71 723.15
  Q 780.69 726.86 796.24 730.76
  C 799.26 731.52 804.17 732.85 806.02 735.23
  C 807.60 737.27 808.48 741.39 805.79 743.05
  C 801.32 745.82 795.09 745.59 789.96 745.21
  A 2.12 2.11 0.5 0 0 787.69 747.44
  C 787.89 750.75 788.40 758.89 784.01 760.08
  C 778.17 761.66 772.43 761.34 766.58 760.73
  A 1.99 1.99 0.0 0 0 764.56 763.52
  Q 766.07 766.88 767.12 771.07
  C 768.08 774.91 763.64 776.36 760.77 776.18
  Q 753.97 775.75 746.14 774.97
  C 744.79 774.83 743.63 775.55 742.94 776.67
  A 1.82 1.81 33.7 0 0 743.43 779.10
  Q 745.88 780.85 748.21 782.66
  C 753.28 786.58 759.92 788.63 766.18 789.77
  Q 774.60 791.31 783.07 792.10
  Q 802.53 793.92 821.89 793.49
  C 827.10 793.38 831.46 793.82 836.27 794.75
  C 843.19 796.10 843.19 799.72 842.07 805.66
  C 841.74 807.38 842.80 808.84 844.08 809.88
  Q 848.84 813.76 852.70 817.37
  Q 855.78 820.24 860.95 820.64
  Q 867.90 821.18 875.46 821.39
  Q 888.72 821.77 900.32 823.54
  Q 907.20 824.59 912.94 826.75
  A 1.34 1.33 -68.0 0 1 913.69 828.53
  C 912.60 831.07 911.72 832.42 908.94 833.61
  Q 898.78 837.99 888.01 840.54
  Q 880.31 842.36 872.00 842.26
  A 1.97 1.96 -3.2 0 0 870.03 844.46
  Q 870.70 850.03 869.71 855.60
  Q 868.88 860.29 864.40 860.37
  Q 854.37 860.54 845.01 860.55
  C 842.40 860.55 837.88 861.52 836.42 864.14
  Q 834.98 866.73 831.78 866.19
  Q 823.48 864.79 817.60 863.10
  C 812.47 861.63 807.48 858.38 801.99 856.71
  A 0.87 0.87 0.0 0 0 801.03 857.04
  C 799.76 858.85 797.91 861.50 800.55 863.30
  Q 807.39 867.96 804.35 876.24
  A 2.15 2.13 6.5 0 1 802.60 877.62
  Q 794.23 878.63 786.06 876.23
  C 782.19 875.10 778.60 872.95 775.04 871.06
  C 772.35 869.63 770.18 870.03 767.27 870.34
  Q 758.79 871.24 752.46 872.51
  Q 751.93 872.62 751.48 873.04
  A 0.68 0.68 0.0 0 0 751.58 874.12
  Q 753.73 875.45 755.91 876.73
  Q 769.43 884.68 784.53 892.88
  C 789.01 895.32 794.35 896.70 799.54 897.79
  Q 810.78 900.15 821.98 903.52
  Q 826.53 904.89 829.80 906.77
  C 833.09 908.66 836.27 910.28 839.98 911.08
  C 846.46 912.49 853.27 913.42 859.48 915.91
  Q 860.46 916.30 860.91 917.06
  A 1.93 1.93 0.0 0 1 860.43 919.56
  Q 858.00 921.45 855.08 922.21
  Q 835.21 927.39 815.74 927.38
  Q 811.44 927.38 808.50 929.56
  C 805.73 931.62 803.56 934.71 799.63 933.90
  Q 790.19 931.94 780.43 929.71
  A 1.74 1.74 0.0 0 0 778.32 931.63
  C 778.89 935.89 780.46 943.47 772.79 941.62
  Q 763.55 939.39 754.98 938.16
  Q 753.64 937.97 752.71 938.96
  Q 750.24 941.60 749.14 945.19
  C 747.54 950.41 737.04 947.17 733.05 945.66
  Q 724.52 942.42 715.02 938.64
  Q 713.53 938.05 712.26 936.98
  A 1.40 1.40 0.0 0 0 710.04 937.58
  Q 709.21 939.89 710.75 941.93
  Q 713.02 944.95 714.67 947.86
  C 717.32 952.54 721.52 956.48 725.92 959.10
  C 734.60 964.29 744.79 968.13 754.27 972.72
  Q 771.69 981.15 789.44 988.85
  Q 794.52 991.06 807.80 998.65
  C 811.23 1000.61 815.24 1002.32 819.04 1003.32
  Q 841.44 1009.18 860.50 1013.77
  Q 871.40 1016.40 879.69 1016.67
  Q 891.44 1017.07 906.15 1017.41
  Q 914.81 1017.61 919.58 1018.62
  Q 923.10 1019.36 927.28 1021.31
  Q 930.67 1022.90 936.41 1023.11
  Q 941.66 1023.31 947.31 1023.83
  Q 948.52 1023.95 949.64 1024.40
  Q 950.15 1024.60 950.30 1025.13
  C 952.25 1032.08 941.91 1041.89 937.02 1045.16
  A 2.67 2.67 0.0 0 0 935.97 1048.24
  C 936.89 1050.98 938.73 1063.24 933.24 1063.42
  Q 915.45 1063.98 898.15 1062.76
  A 1.50 1.50 0.0 0 0 896.59 1064.63
  C 897.67 1068.95 899.63 1074.84 896.79 1078.60
  Q 896.51 1078.97 896.05 1079.07
  Q 892.20 1079.87 889.12 1079.18
  Q 882.16 1077.63 874.35 1076.31
  Q 872.56 1076.00 870.95 1076.50
  Q 870.45 1076.66 870.34 1077.17
  Q 868.99 1083.49 865.18 1090.44
  C 863.72 1093.10 860.58 1092.69 857.60 1091.89
  Q 835.91 1086.05 814.75 1078.58
  C 808.76 1076.46 802.71 1075.39 796.68 1073.21
  Q 793.65 1072.12 790.58 1072.16
  A 1.28 1.27 -4.2 0 0 789.34 1073.59
  Q 790.00 1078.78 790.48 1083.80
  C 790.88 1087.91 790.51 1095.30 783.78 1091.28
  C 779.65 1088.82 774.69 1087.35 770.12 1085.33
  Q 750.86 1076.83 733.36 1068.67
  Q 731.71 1067.91 729.79 1068.46
  Q 728.93 1068.71 729.36 1069.50
  Q 730.60 1071.75 732.05 1073.33
  C 734.84 1076.36 736.09 1079.90 735.51 1083.98
  Q 735.41 1084.67 734.77 1084.95
  Q 730.04 1087.08 724.86 1087.81
  Q 713.25 1089.46 701.78 1088.22
  Q 699.87 1088.02 701.14 1089.46
  C 703.24 1091.84 706.39 1092.79 708.89 1094.63
  Q 718.66 1101.81 729.19 1108.50
  Q 742.24 1116.78 757.74 1119.92
  C 768.75 1122.14 778.15 1124.30 788.16 1129.04
  C 790.89 1130.33 792.96 1131.27 793.74 1134.50
  C 794.27 1136.73 794.14 1138.78 796.94 1139.50
  Q 800.02 1140.29 803.02 1140.62
  C 812.83 1141.67 823.47 1143.10 831.48 1149.17
  C 837.40 1153.65 843.85 1158.04 851.18 1158.33
  C 854.29 1158.45 858.86 1158.98 860.35 1162.08
  C 862.46 1166.48 859.16 1169.58 856.50 1172.60
  C 852.04 1177.65 847.76 1177.90 841.43 1178.10
  Q 835.72 1178.28 830.00 1178.16
  C 827.63 1178.11 825.65 1178.83 823.98 1180.55
  C 819.92 1184.74 816.91 1186.48 810.87 1184.97
  Q 800.11 1182.29 788.92 1178.58
  Q 781.88 1176.25 775.03 1177.52
  A 1.83 1.83 0.0 0 0 773.69 1180.06
  C 775.49 1184.10 777.12 1188.37 780.53 1191.29
  Q 782.21 1192.72 786.06 1194.37
  Q 800.64 1200.60 814.30 1205.94
  Q 819.42 1207.95 823.89 1210.02
  C 828.05 1211.94 832.17 1213.83 836.83 1214.46
  Q 845.74 1215.67 854.39 1216.78
  C 861.46 1217.68 868.39 1219.48 875.56 1220.04
  Q 886.62 1220.90 897.07 1222.13
  C 905.02 1223.06 913.13 1223.13 921.17 1222.90
  A 1.86 1.86 0.0 0 1 922.90 1223.94
  Q 923.78 1225.75 923.90 1228.00
  Q 924.48 1239.78 924.14 1250.24
  C 923.93 1256.69 919.49 1260.55 915.08 1264.46
  C 912.60 1266.67 908.78 1266.81 905.54 1267.53
  Q 899.51 1268.86 894.78 1270.85
  Q 892.80 1271.69 890.87 1275.38
  Q 889.75 1277.54 886.82 1278.54
  Q 876.61 1282.05 872.30 1284.67
  Q 868.57 1286.93 864.92 1289.47
  C 862.75 1290.98 859.66 1291.36 857.03 1291.25
  C 851.50 1291.02 844.78 1290.39 840.25 1293.94
  Q 837.28 1296.27 833.97 1298.14
  C 830.99 1299.83 827.40 1299.18 824.49 1297.59
  Q 813.43 1291.50 803.66 1284.51
  Q 798.48 1280.81 792.85 1279.12
  A 1.67 1.67 0.0 0 0 790.70 1280.73
  C 790.75 1284.60 788.94 1287.88 787.55 1291.39
  Q 787.11 1292.50 785.92 1292.63
  Q 779.67 1293.28 774.68 1290.82
  Q 767.73 1287.39 761.43 1282.25
  Q 760.07 1281.14 758.32 1281.29
  A 0.89 0.89 0.0 0 0 757.51 1282.18
  Q 757.49 1289.05 754.19 1294.57
  C 751.90 1298.38 747.89 1299.61 743.38 1299.12
  Q 735.38 1298.25 727.97 1294.76
  Q 723.63 1292.71 719.44 1290.21
  Q 708.11 1283.44 696.45 1277.61
  A 1.32 1.32 0.0 0 0 694.54 1278.77
  Q 694.46 1283.36 693.20 1287.70
  C 692.62 1289.67 693.57 1291.54 695.01 1292.75
  C 705.90 1301.91 718.46 1307.94 731.73 1313.17
  Q 739.48 1316.22 749.57 1317.55
  Q 772.70 1320.60 795.42 1320.74
  C 800.02 1320.77 804.78 1321.20 809.22 1322.23
  C 815.73 1323.73 821.91 1328.57 827.36 1332.56
  Q 830.84 1335.11 834.71 1335.91
  C 838.81 1336.76 843.01 1337.43 847.19 1337.75
  Q 861.99 1338.88 875.98 1340.75
  Q 878.38 1341.07 883.40 1342.91
  C 889.00 1344.95 892.62 1350.07 895.05 1355.64
  C 895.68 1357.08 897.28 1357.95 898.78 1357.92
  Q 902.24 1357.86 905.03 1358.00
  Q 932.38 1359.41 959.71 1360.96
  C 963.39 1361.17 981.40 1362.39 979.87 1368.85
  Q 979.30 1371.26 977.00 1372.19
  Q 971.87 1374.26 966.39 1375.34
  A 2.21 2.20 84.1 0 0 964.61 1377.54
  C 964.64 1379.87 964.38 1385.01 961.37 1385.59
  Q 952.00 1387.41 943.19 1387.97
  A 1.63 1.59 15.0 0 0 941.96 1388.66
  Q 941.37 1389.50 942.09 1390.23
  Q 944.36 1392.57 947.77 1394.24
  C 951.27 1395.95 949.23 1399.28 946.24 1399.77
  Q 938.35 1401.06 928.13 1401.60
  Q 926.80 1401.67 925.75 1402.35
  A 1.02 1.02 0.0 0 0 925.77 1404.08
  C 931.90 1407.84 937.92 1411.37 945.26 1411.94
  Q 949.13 1412.25 952.21 1412.73
  C 967.03 1415.07 981.92 1417.46 996.51 1418.84
  C 1006.46 1419.77 1015.93 1420.98 1025.65 1423.12
  C 1028.98 1423.86 1032.41 1424.99 1035.61 1426.30
  Q 1041.59 1428.74 1045.17 1434.74
  C 1046.55 1437.04 1047.76 1439.58 1049.71 1441.41
  Q 1054.52 1445.92 1061.25 1445.93
  Q 1080.30 1445.96 1096.95 1447.03
  C 1100.07 1447.23 1103.05 1447.71 1105.95 1448.82
  Q 1108.26 1449.70 1107.88 1452.43
  C 1107.56 1454.67 1106.34 1456.26 1104.53 1457.53
  Q 1100.50 1460.37 1097.14 1462.77
  Q 1092.77 1465.89 1085.69 1467.02
  Q 1074.83 1468.74 1067.27 1468.95
  Q 1062.17 1469.10 1054.77 1468.45
  C 1050.82 1468.10 1047.09 1466.91 1043.20 1466.85
  Z"></path>
</svg>
